<svg xmlns="http://www.w3.org/2000/svg" viewBox="0 0 256 256" width="256" height="256">
  <defs>
    <linearGradient id="holoIcon" x1="0" y1="0" x2="1" y2="1">
      <stop offset="0%" stop-color="#06B6D4"/>
      <stop offset="33%" stop-color="#8B5CF6"/>
      <stop offset="66%" stop-color="#EC4899"/>
      <stop offset="100%" stop-color="#F59E0B"/>
    </linearGradient>
  </defs>
  <rect width="256" height="256" rx="32" fill="#18181B"/>
  <!-- Prism -->
  <polygon points="128,32 52,168 204,168" fill="none" stroke="url(#holoIcon)" stroke-width="2.5"/>
  <!-- Right rays -->
  <line x1="190" y1="120" x2="244" y2="88" stroke="#EF4444" stroke-width="2" opacity="0.55"/>
  <line x1="192" y1="128" x2="246" y2="100" stroke="#F97316" stroke-width="2" opacity="0.55"/>
  <line x1="194" y1="136" x2="247" y2="112" stroke="#FDE047" stroke-width="2" opacity="0.55"/>
  <line x1="196" y1="144" x2="247" y2="124" stroke="#22C55E" stroke-width="2" opacity="0.55"/>
  <line x1="197" y1="152" x2="246" y2="136" stroke="#3B82F6" stroke-width="2" opacity="0.55"/>
  <!-- Left rays -->
  <line x1="66" y1="120" x2="12" y2="88" stroke="#8B5CF6" stroke-width="2" opacity="0.55"/>
  <line x1="64" y1="128" x2="10" y2="100" stroke="#3B82F6" stroke-width="2" opacity="0.55"/>
  <line x1="62" y1="136" x2="9" y2="112" stroke="#22C55E" stroke-width="2" opacity="0.55"/>
  <line x1="60" y1="144" x2="9" y2="124" stroke="#FDE047" stroke-width="2" opacity="0.55"/>
  <line x1="59" y1="152" x2="10" y2="136" stroke="#F97316" stroke-width="2" opacity="0.55"/>
  <!-- Wolf — centered in prism, outline only -->
  <g transform="translate(128,118) scale(0.52)">
    <polygon points="0,-68 -50,-12 -34,48 0,28 34,48 50,-12" fill="none" stroke="url(#holoIcon)" stroke-width="3"/>
    <polygon points="-38,-8 -58,-50 -18,-28" fill="none" stroke="url(#holoIcon)" stroke-width="3"/>
    <polygon points="38,-8 58,-50 18,-28" fill="none" stroke="url(#holoIcon)" stroke-width="3"/>
    <circle cx="-14" cy="-4" r="3.5" fill="#06B6D4"/>
    <circle cx="14" cy="-4" r="3.5" fill="#EC4899"/>
  </g>
</svg>
