<svg xmlns="http://www.w3.org/2000/svg" viewBox="0 0 256 256" width="256" height="256">
  <defs><linearGradient id="g1" x1="0%" y1="0%" x2="100%" y2="100%"><stop offset="0%" stop-color="#6B21A8"/><stop offset="100%" stop-color="#06B6D4"/></linearGradient></defs>
  <rect width="256" height="256" rx="32" fill="#0F0A1A"/>
  <g transform="translate(128,110) scale(0.55)">
    <polygon points="-120,-180 -80,-60 -40,-120" fill="url(#g1)" opacity="0.9"/>
    <polygon points="120,-180 80,-60 40,-120" fill="url(#g1)" opacity="0.9"/>
    <polygon points="-80,-60 -110,30 -60,80 0,120 60,80 110,30 80,-60 40,-120 0,-80 -40,-120" fill="url(#g1)"/>
    <ellipse cx="-35" cy="-10" rx="7" ry="7" fill="#06B6D4"/><ellipse cx="35" cy="-10" rx="7" ry="7" fill="#06B6D4"/>
    <ellipse cx="-33" cy="-12" rx="3" ry="3" fill="white" opacity="0.7"/><ellipse cx="33" cy="-12" rx="3" ry="3" fill="white" opacity="0.7"/>
  </g>
  <text x="128" y="210" text-anchor="middle" font-family="'Segoe UI',sans-serif" font-size="32" font-weight="700" fill="white" letter-spacing="6">ROMULUS</text>
  <text x="128" y="232" text-anchor="middle" font-family="'Segoe UI',sans-serif" font-size="9" fill="#06B6D4" letter-spacing="3" opacity="0.6">YOUR COLLECTION, PERFECTED.</text>
</svg>