<svg xmlns="http://www.w3.org/2000/svg" viewBox="0 0 256 256" width="256" height="256">
  <rect width="256" height="256" rx="32" fill="#F0E6D2"/>
  <!-- Pixel wolf sepia / parchment style -->
  <g transform="translate(40,20)">
    <rect x="12" y="0" width="12" height="12" fill="#5C4033" opacity="0.7"/>
    <rect x="144" y="0" width="12" height="12" fill="#5C4033" opacity="0.7"/>
    <rect x="12" y="12" width="24" height="12" fill="#6B4226"/>
    <rect x="132" y="12" width="24" height="12" fill="#6B4226"/>
    <rect x="24" y="24" width="24" height="12" fill="#8B6914"/>
    <rect x="120" y="24" width="24" height="12" fill="#8B6914"/>
    <rect x="24" y="36" width="36" height="12" fill="#704214"/>
    <rect x="108" y="36" width="36" height="12" fill="#704214"/>
    <rect x="36" y="48" width="96" height="12" fill="#5C4033"/>
    <rect x="36" y="60" width="96" height="12" fill="#3E2723"/>
    <rect x="48" y="60" width="24" height="12" fill="#DAA520"/>
    <rect x="96" y="60" width="24" height="12" fill="#DAA520"/>
    <rect x="36" y="72" width="96" height="12" fill="#4E342E"/>
    <rect x="48" y="84" width="72" height="12" fill="#5C4033"/>
    <rect x="72" y="84" width="24" height="12" fill="#2E1A0E"/>
    <rect x="60" y="96" width="48" height="12" fill="#5C4033"/>
    <rect x="60" y="108" width="48" height="12" fill="#6B4226"/>
  </g>
  <text x="128" y="178" text-anchor="middle" font-family="'Palatino Linotype','Book Antiqua',serif" font-size="28" font-weight="700" fill="#3E2723" letter-spacing="4">ROMULUS</text>
  <text x="128" y="200" text-anchor="middle" font-family="'Palatino Linotype',serif" font-size="9" fill="#8B6914" letter-spacing="2">YOUR COLLECTION, PERFECTED.</text>
</svg>