<svg xmlns="http://www.w3.org/2000/svg" viewBox="0 0 256 256" width="256" height="256">
  <defs><linearGradient id="g10" x1="0%" y1="0%" x2="100%" y2="100%"><stop offset="0%" stop-color="#F59E0B"/><stop offset="100%" stop-color="#EF4444"/></linearGradient></defs>
  <rect width="256" height="256" rx="32" fill="#18181B"/>
  <!-- Pixel wolf sunset orange-red -->
  <g transform="translate(40,20)">
    <rect x="12" y="0" width="12" height="12" fill="#F59E0B" opacity="0.7"/>
    <rect x="144" y="0" width="12" height="12" fill="#F59E0B" opacity="0.7"/>
    <rect x="12" y="12" width="24" height="12" fill="#F97316"/>
    <rect x="132" y="12" width="24" height="12" fill="#F97316"/>
    <rect x="24" y="24" width="24" height="12" fill="#FB923C"/>
    <rect x="120" y="24" width="24" height="12" fill="#FB923C"/>
    <rect x="24" y="36" width="36" height="12" fill="#EF4444"/>
    <rect x="108" y="36" width="36" height="12" fill="#EF4444"/>
    <rect x="36" y="48" width="96" height="12" fill="#DC2626"/>
    <rect x="36" y="60" width="96" height="12" fill="#B91C1C"/>
    <rect x="48" y="60" width="24" height="12" fill="#FBBF24"/>
    <rect x="96" y="60" width="24" height="12" fill="#FBBF24"/>
    <rect x="36" y="72" width="96" height="12" fill="#991B1B"/>
    <rect x="48" y="84" width="72" height="12" fill="#DC2626"/>
    <rect x="72" y="84" width="24" height="12" fill="#450A0A"/>
    <rect x="60" y="96" width="48" height="12" fill="#B91C1C"/>
    <rect x="60" y="108" width="48" height="12" fill="#EF4444"/>
  </g>
  <text x="128" y="178" text-anchor="middle" font-family="'Impact',sans-serif" font-size="30" fill="url(#g10)" letter-spacing="4">ROMULUS</text>
  <text x="128" y="200" text-anchor="middle" font-family="'Arial',sans-serif" font-size="9" fill="#F59E0B" letter-spacing="2" opacity="0.6">YOUR COLLECTION, PERFECTED.</text>
</svg>