<svg xmlns="http://www.w3.org/2000/svg" viewBox="0 0 256 256" width="256" height="256">
  <rect width="256" height="256" rx="32" fill="#0F0A1A"/>
  <!-- Pixel Eagle / Falcon - ROM guardian -->
  <g transform="translate(40,16)">
    <rect x="72" y="0" width="24" height="12" fill="#DAA520"/>
    <rect x="60" y="12" width="48" height="12" fill="#B8860B"/>
    <rect x="48" y="24" width="72" height="12" fill="#8B6914"/>
    <rect x="36" y="36" width="96" height="12" fill="#DAA520"/>
    <rect x="60" y="36" width="12" height="12" fill="white"/>
    <rect x="96" y="36" width="12" height="12" fill="white"/>
    <rect x="24" y="48" width="120" height="12" fill="#B8860B"/>
    <rect x="60" y="60" width="48" height="12" fill="#FF8C00"/>
    <rect x="72" y="60" width="24" height="12" fill="#FF6347"/>
    <rect x="12" y="48" width="12" height="12" fill="#DAA520" opacity="0.6"/>
    <rect x="144" y="48" width="12" height="12" fill="#DAA520" opacity="0.6"/>
    <rect x="0" y="60" width="12" height="12" fill="#DAA520" opacity="0.4"/>
    <rect x="156" y="60" width="12" height="12" fill="#DAA520" opacity="0.4"/>
    <rect x="48" y="72" width="72" height="12" fill="#8B6914"/>
    <rect x="60" y="84" width="48" height="12" fill="#B8860B"/>
    <rect x="36" y="96" width="24" height="12" fill="#8B6914" opacity="0.5"/>
    <rect x="108" y="96" width="24" height="12" fill="#8B6914" opacity="0.5"/>
  </g>
  <text x="128" y="168" text-anchor="middle" font-family="'Segoe UI',sans-serif" font-size="26" font-weight="700" fill="#DAA520" letter-spacing="5">ROMULUS</text>
  <text x="128" y="190" text-anchor="middle" font-family="'Segoe UI',sans-serif" font-size="9" fill="#FF8C00" letter-spacing="2" opacity="0.6">YOUR COLLECTION, PERFECTED.</text>
</svg>