<svg xmlns="http://www.w3.org/2000/svg" viewBox="0 0 256 256" width="256" height="256">
  <defs>
    <linearGradient id="holo51" x1="0" y1="0" x2="1" y2="1">
      <stop offset="0%" stop-color="#06B6D4"/>
      <stop offset="25%" stop-color="#8B5CF6"/>
      <stop offset="50%" stop-color="#EC4899"/>
      <stop offset="75%" stop-color="#F59E0B"/>
      <stop offset="100%" stop-color="#10B981"/>
    </linearGradient>
  </defs>
  <rect width="256" height="256" rx="32" fill="#18181B"/>
  <!-- Prism triangle -->
  <polygon points="128,25 65,148 191,148" fill="none" stroke="url(#holo51)" stroke-width="2"/>
  <polygon points="128,40 75,140 181,140" fill="none" stroke="url(#holo51)" stroke-width="0.5" opacity="0.25"/>
  <!-- Rainbow rays right -->
  <line x1="178" y1="110" x2="240" y2="75" stroke="#EF4444" stroke-width="2" opacity="0.6"/>
  <line x1="180" y1="116" x2="242" y2="86" stroke="#F97316" stroke-width="2" opacity="0.6"/>
  <line x1="182" y1="122" x2="244" y2="97" stroke="#FDE047" stroke-width="2" opacity="0.6"/>
  <line x1="184" y1="128" x2="245" y2="108" stroke="#22C55E" stroke-width="2" opacity="0.6"/>
  <line x1="185" y1="134" x2="245" y2="119" stroke="#3B82F6" stroke-width="2" opacity="0.6"/>
  <line x1="186" y1="140" x2="244" y2="130" stroke="#8B5CF6" stroke-width="2" opacity="0.6"/>
  <!-- White beam left -->
  <line x1="12" y1="95" x2="82" y2="112" stroke="white" stroke-width="2.5" opacity="0.5"/>
  <!-- BIGGER Wolf silhouette inside prism -->
  <g transform="translate(128,95) scale(0.38)" opacity="0.8">
    <polygon points="0,-65 -48,-10 -32,45 0,25 32,45 48,-10" fill="white"/>
    <polygon points="-36,-6 -55,-48 -16,-26" fill="white"/>
    <polygon points="36,-6 55,-48 16,-26" fill="white"/>
  </g>
  <text x="128" y="183" text-anchor="middle" font-family="'Segoe UI',sans-serif" font-size="28" font-weight="600" fill="url(#holo51)" letter-spacing="5">ROMULUS</text>
  <text x="128" y="205" text-anchor="middle" font-family="'Segoe UI',sans-serif" font-size="8" fill="#6B7280" letter-spacing="3">YOUR COLLECTION, PERFECTED.</text>
</svg>