<svg xmlns="http://www.w3.org/2000/svg" viewBox="0 0 256 256" width="256" height="256">
  <defs>
    <linearGradient id="holo52" x1="0" y1="0" x2="1" y2="1">
      <stop offset="0%" stop-color="#06B6D4"/>
      <stop offset="25%" stop-color="#8B5CF6"/>
      <stop offset="50%" stop-color="#EC4899"/>
      <stop offset="75%" stop-color="#F59E0B"/>
      <stop offset="100%" stop-color="#10B981"/>
    </linearGradient>
  </defs>
  <rect width="256" height="256" rx="32" fill="#0A0A0A"/>
  <!-- Prism -->
  <polygon points="128,20 55,155 201,155" fill="none" stroke="url(#holo52)" stroke-width="2.5"/>
  <polygon points="128,38 68,145 188,145" fill="none" stroke="url(#holo52)" stroke-width="0.5" opacity="0.2"/>
  <!-- Rainbow rays — thicker, more spread -->
  <line x1="185" y1="105" x2="248" y2="65" stroke="#EF4444" stroke-width="2.5" opacity="0.7"/>
  <line x1="188" y1="113" x2="250" y2="78" stroke="#F97316" stroke-width="2.5" opacity="0.7"/>
  <line x1="190" y1="121" x2="252" y2="91" stroke="#FDE047" stroke-width="2.5" opacity="0.7"/>
  <line x1="192" y1="129" x2="253" y2="104" stroke="#22C55E" stroke-width="2.5" opacity="0.7"/>
  <line x1="194" y1="137" x2="253" y2="117" stroke="#3B82F6" stroke-width="2.5" opacity="0.7"/>
  <line x1="196" y1="145" x2="252" y2="130" stroke="#8B5CF6" stroke-width="2.5" opacity="0.7"/>
  <line x1="197" y1="150" x2="250" y2="140" stroke="#EC4899" stroke-width="2" opacity="0.5"/>
  <!-- White beam -->
  <line x1="4" y1="90" x2="75" y2="112" stroke="white" stroke-width="3" opacity="0.5"/>
  <line x1="4" y1="93" x2="75" y2="115" stroke="white" stroke-width="1" opacity="0.2"/>
  <!-- Wolf — big, filled with holographic gradient -->
  <g transform="translate(128,92) scale(0.42)">
    <polygon points="0,-68 -50,-12 -34,48 0,28 34,48 50,-12" fill="url(#holo52)" opacity="0.9"/>
    <polygon points="-38,-8 -58,-50 -18,-28" fill="url(#holo52)" opacity="0.9"/>
    <polygon points="38,-8 58,-50 18,-28" fill="url(#holo52)" opacity="0.9"/>
    <!-- Eyes negative -->
    <circle cx="-16" cy="-8" r="4" fill="#0A0A0A"/>
    <circle cx="16" cy="-8" r="4" fill="#0A0A0A"/>
  </g>
  <text x="128" y="190" text-anchor="middle" font-family="'Segoe UI',sans-serif" font-size="28" font-weight="600" fill="url(#holo52)" letter-spacing="5">ROMULUS</text>
  <text x="128" y="212" text-anchor="middle" font-family="'Segoe UI',sans-serif" font-size="8" fill="#6B7280" letter-spacing="3">YOUR COLLECTION, PERFECTED.</text>
</svg>