<svg xmlns="http://www.w3.org/2000/svg" viewBox="0 0 256 256" width="256" height="256">
  <defs>
    <linearGradient id="holo53" x1="0" y1="0" x2="1" y2="1">
      <stop offset="0%" stop-color="#06B6D4"/>
      <stop offset="25%" stop-color="#8B5CF6"/>
      <stop offset="50%" stop-color="#EC4899"/>
      <stop offset="75%" stop-color="#F59E0B"/>
      <stop offset="100%" stop-color="#10B981"/>
    </linearGradient>
  </defs>
  <rect width="256" height="256" rx="32" fill="#0F0520"/>
  <!-- Doppelter Prism — inner + outer -->
  <polygon points="128,18 50,158 206,158" fill="none" stroke="url(#holo53)" stroke-width="1.5" opacity="0.4"/>
  <polygon points="128,30 62,148 194,148" fill="none" stroke="url(#holo53)" stroke-width="2.5"/>
  <polygon points="128,45 76,138 180,138" fill="none" stroke="url(#holo53)" stroke-width="0.5" opacity="0.2"/>
  <!-- Rainbow rays -->
  <line x1="182" y1="108" x2="245" y2="70" stroke="#EF4444" stroke-width="2" opacity="0.65"/>
  <line x1="184" y1="115" x2="247" y2="82" stroke="#F97316" stroke-width="2" opacity="0.65"/>
  <line x1="186" y1="122" x2="248" y2="94" stroke="#FDE047" stroke-width="2" opacity="0.65"/>
  <line x1="188" y1="129" x2="249" y2="106" stroke="#22C55E" stroke-width="2" opacity="0.65"/>
  <line x1="189" y1="136" x2="249" y2="118" stroke="#3B82F6" stroke-width="2" opacity="0.65"/>
  <line x1="190" y1="143" x2="248" y2="130" stroke="#8B5CF6" stroke-width="2" opacity="0.65"/>
  <!-- White beam -->
  <line x1="8" y1="92" x2="78" y2="112" stroke="white" stroke-width="2.5" opacity="0.45"/>
  <!-- Wolf — very big, white silhouette with glowing eyes -->
  <g transform="translate(128,95) scale(0.45)">
    <polygon points="0,-70 -52,-14 -36,50 0,28 36,50 52,-14" fill="white" opacity="0.85"/>
    <polygon points="-40,-10 -60,-52 -18,-30" fill="white" opacity="0.85"/>
    <polygon points="40,-10 60,-52 18,-30" fill="white" opacity="0.85"/>
    <!-- Eyes — rainbow colored -->
    <circle cx="-16" cy="-8" r="5" fill="#EC4899"/>
    <circle cx="16" cy="-8" r="5" fill="#06B6D4"/>
    <!-- Eye glow -->
    <circle cx="-16" cy="-8" r="9" fill="#EC4899" opacity="0.15"/>
    <circle cx="16" cy="-8" r="9" fill="#06B6D4" opacity="0.15"/>
  </g>
  <text x="128" y="192" text-anchor="middle" font-family="'Segoe UI',sans-serif" font-size="28" font-weight="600" fill="url(#holo53)" letter-spacing="5">ROMULUS</text>
  <text x="128" y="214" text-anchor="middle" font-family="'Segoe UI',sans-serif" font-size="8" fill="#6B7280" letter-spacing="3">YOUR COLLECTION, PERFECTED.</text>
</svg>