<svg xmlns="http://www.w3.org/2000/svg" viewBox="0 0 256 256" width="256" height="256">
  <defs>
    <linearGradient id="holo54" x1="0" y1="0" x2="1" y2="1">
      <stop offset="0%" stop-color="#F43F5E"/>
      <stop offset="25%" stop-color="#F97316"/>
      <stop offset="50%" stop-color="#FDE047"/>
      <stop offset="75%" stop-color="#22C55E"/>
      <stop offset="100%" stop-color="#3B82F6"/>
    </linearGradient>
  </defs>
  <rect width="256" height="256" rx="32" fill="#18181B"/>
  <!-- Prism — warme Farben zuerst -->
  <polygon points="128,28 60,150 196,150" fill="none" stroke="url(#holo54)" stroke-width="2.5"/>
  <polygon points="128,42 72,142 184,142" fill="none" stroke="url(#holo54)" stroke-width="0.5" opacity="0.2"/>
  <!-- Rays — warm-to-cool spectrum -->
  <line x1="184" y1="108" x2="245" y2="72" stroke="#F43F5E" stroke-width="2.5" opacity="0.7"/>
  <line x1="186" y1="115" x2="247" y2="84" stroke="#F97316" stroke-width="2.5" opacity="0.7"/>
  <line x1="188" y1="122" x2="248" y2="96" stroke="#FBBF24" stroke-width="2.5" opacity="0.7"/>
  <line x1="190" y1="129" x2="249" y2="108" stroke="#34D399" stroke-width="2.5" opacity="0.7"/>
  <line x1="191" y1="136" x2="249" y2="120" stroke="#60A5FA" stroke-width="2.5" opacity="0.7"/>
  <line x1="192" y1="143" x2="248" y2="132" stroke="#A78BFA" stroke-width="2" opacity="0.5"/>
  <!-- White beam -->
  <line x1="8" y1="90" x2="78" y2="112" stroke="white" stroke-width="2.5" opacity="0.5"/>
  <!-- Wolf — big, white -->
  <g transform="translate(128,94) scale(0.4)">
    <polygon points="0,-68 -50,-12 -34,48 0,28 34,48 50,-12" fill="white" opacity="0.8"/>
    <polygon points="-38,-8 -58,-50 -18,-28" fill="white" opacity="0.8"/>
    <polygon points="38,-8 58,-50 18,-28" fill="white" opacity="0.8"/>
  </g>
  <text x="128" y="188" text-anchor="middle" font-family="'Segoe UI',sans-serif" font-size="28" font-weight="600" fill="url(#holo54)" letter-spacing="5">ROMULUS</text>
  <text x="128" y="210" text-anchor="middle" font-family="'Segoe UI',sans-serif" font-size="8" fill="#6B7280" letter-spacing="3">YOUR COLLECTION, PERFECTED.</text>
</svg>