<svg xmlns="http://www.w3.org/2000/svg" viewBox="0 0 256 256" width="256" height="256">
  <defs>
    <linearGradient id="holo55" x1="0" y1="0" x2="1" y2="1">
      <stop offset="0%" stop-color="#06B6D4"/>
      <stop offset="33%" stop-color="#8B5CF6"/>
      <stop offset="66%" stop-color="#EC4899"/>
      <stop offset="100%" stop-color="#F59E0B"/>
    </linearGradient>
  </defs>
  <rect width="256" height="256" rx="32" fill="#18181B"/>
  <!-- Prism -->
  <polygon points="128,28 60,148 196,148" fill="none" stroke="url(#holo55)" stroke-width="2"/>
  <!-- Rainbow rays both sides (symmetric dispersion) -->
  <!-- Right rays -->
  <line x1="184" y1="108" x2="244" y2="74" stroke="#EF4444" stroke-width="1.8" opacity="0.6"/>
  <line x1="186" y1="116" x2="246" y2="87" stroke="#F97316" stroke-width="1.8" opacity="0.6"/>
  <line x1="188" y1="124" x2="247" y2="100" stroke="#FDE047" stroke-width="1.8" opacity="0.6"/>
  <line x1="189" y1="132" x2="247" y2="113" stroke="#22C55E" stroke-width="1.8" opacity="0.6"/>
  <line x1="190" y1="140" x2="246" y2="126" stroke="#3B82F6" stroke-width="1.8" opacity="0.6"/>
  <!-- Left rays (mirrored) -->
  <line x1="72" y1="108" x2="12" y2="74" stroke="#8B5CF6" stroke-width="1.8" opacity="0.6"/>
  <line x1="70" y1="116" x2="10" y2="87" stroke="#3B82F6" stroke-width="1.8" opacity="0.6"/>
  <line x1="68" y1="124" x2="9" y2="100" stroke="#22C55E" stroke-width="1.8" opacity="0.6"/>
  <line x1="67" y1="132" x2="9" y2="113" stroke="#FDE047" stroke-width="1.8" opacity="0.6"/>
  <line x1="66" y1="140" x2="10" y2="126" stroke="#F97316" stroke-width="1.8" opacity="0.6"/>
  <!-- Wolf — big, white, centered -->
  <g transform="translate(128,94) scale(0.42)">
    <polygon points="0,-68 -50,-12 -34,48 0,28 34,48 50,-12" fill="white" opacity="0.85"/>
    <polygon points="-38,-8 -58,-50 -18,-28" fill="white" opacity="0.85"/>
    <polygon points="38,-8 58,-50 18,-28" fill="white" opacity="0.85"/>
  </g>
  <text x="128" y="186" text-anchor="middle" font-family="'Segoe UI',sans-serif" font-size="28" font-weight="600" fill="url(#holo55)" letter-spacing="5">ROMULUS</text>
  <text x="128" y="208" text-anchor="middle" font-family="'Segoe UI',sans-serif" font-size="8" fill="#6B7280" letter-spacing="3">YOUR COLLECTION, PERFECTED.</text>
</svg>