<svg xmlns="http://www.w3.org/2000/svg" viewBox="0 0 256 256" width="256" height="256">
  <defs>
    <linearGradient id="holo56" x1="0" y1="0" x2="1" y2="1">
      <stop offset="0%" stop-color="#06B6D4"/>
      <stop offset="25%" stop-color="#8B5CF6"/>
      <stop offset="50%" stop-color="#EC4899"/>
      <stop offset="75%" stop-color="#F59E0B"/>
      <stop offset="100%" stop-color="#10B981"/>
    </linearGradient>
    <clipPath id="prismClip56">
      <polygon points="128,28 60,148 196,148"/>
    </clipPath>
  </defs>
  <rect width="256" height="256" rx="32" fill="#0A0A0F"/>
  <!-- Glass-tinted prism fill -->
  <polygon points="128,28 60,148 196,148" fill="#8B5CF6" opacity="0.08"/>
  <polygon points="128,28 60,148 196,148" fill="none" stroke="url(#holo56)" stroke-width="2.5"/>
  <!-- White beam in -->
  <line x1="0" y1="100" x2="80" y2="100" stroke="white" stroke-width="2.5" opacity="0.35"/>
  <!-- Rainbow rays right -->
  <line x1="180" y1="90" x2="255" y2="52" stroke="#EF4444" stroke-width="2.2" opacity="0.7"/>
  <line x1="182" y1="98" x2="255" y2="68" stroke="#F97316" stroke-width="2.2" opacity="0.7"/>
  <line x1="184" y1="106" x2="255" y2="84" stroke="#FBBF24" stroke-width="2.2" opacity="0.7"/>
  <line x1="186" y1="114" x2="255" y2="100" stroke="#34D399" stroke-width="2.2" opacity="0.7"/>
  <line x1="187" y1="122" x2="255" y2="116" stroke="#06B6D4" stroke-width="2.2" opacity="0.7"/>
  <line x1="188" y1="130" x2="255" y2="132" stroke="#818CF8" stroke-width="2.2" opacity="0.7"/>
  <line x1="189" y1="138" x2="255" y2="148" stroke="#A855F7" stroke-width="2.2" opacity="0.7"/>
  <!-- Wolf — inverted (prism bg shows through) as outline -->
  <g transform="translate(128,94) scale(0.44)">
    <polygon points="0,-68 -50,-12 -34,48 0,28 34,48 50,-12" fill="none" stroke="url(#holo56)" stroke-width="3"/>
    <polygon points="-38,-8 -58,-50 -18,-28" fill="none" stroke="url(#holo56)" stroke-width="3"/>
    <polygon points="38,-8 58,-50 18,-28" fill="none" stroke="url(#holo56)" stroke-width="3"/>
    <!-- Eyes -->
    <circle cx="-14" cy="-4" r="3" fill="#06B6D4"/>
    <circle cx="14" cy="-4" r="3" fill="#EC4899"/>
  </g>
  <text x="128" y="186" text-anchor="middle" font-family="'Segoe UI',sans-serif" font-size="28" font-weight="600" fill="url(#holo56)" letter-spacing="5">ROMULUS</text>
  <text x="128" y="208" text-anchor="middle" font-family="'Segoe UI',sans-serif" font-size="8" fill="#4B5563" letter-spacing="3">YOUR COLLECTION, PERFECTED.</text>
</svg>