<svg xmlns="http://www.w3.org/2000/svg" viewBox="0 0 256 256" width="256" height="256">
  <defs>
    <linearGradient id="holo57" x1="0" y1="0" x2="1" y2="1">
      <stop offset="0%" stop-color="#06B6D4"/>
      <stop offset="20%" stop-color="#3B82F6"/>
      <stop offset="40%" stop-color="#8B5CF6"/>
      <stop offset="60%" stop-color="#EC4899"/>
      <stop offset="80%" stop-color="#F59E0B"/>
      <stop offset="100%" stop-color="#10B981"/>
    </linearGradient>
  </defs>
  <rect width="256" height="256" rx="32" fill="#0C0C18"/>
  <!-- Diamond prism (rotated square) -->
  <polygon points="128,30 68,100 128,170 188,100" fill="none" stroke="url(#holo57)" stroke-width="2.5"/>
  <!-- Beam in from top-left -->
  <line x1="20" y1="20" x2="98" y2="65" stroke="white" stroke-width="2" opacity="0.35"/>
  <!-- Rainbow rays out bottom-right -->
  <line x1="158" y1="135" x2="246" y2="180" stroke="#EF4444" stroke-width="1.8" opacity="0.65"/>
  <line x1="162" y1="138" x2="248" y2="192" stroke="#F97316" stroke-width="1.8" opacity="0.65"/>
  <line x1="166" y1="142" x2="249" y2="204" stroke="#FDE047" stroke-width="1.8" opacity="0.65"/>
  <line x1="170" y1="146" x2="248" y2="216" stroke="#22C55E" stroke-width="1.8" opacity="0.65"/>
  <line x1="174" y1="150" x2="246" y2="228" stroke="#3B82F6" stroke-width="1.8" opacity="0.65"/>
  <line x1="178" y1="154" x2="242" y2="238" stroke="#8B5CF6" stroke-width="1.8" opacity="0.65"/>
  <!-- Wolf inside diamond -->
  <g transform="translate(128,95) scale(0.40)">
    <polygon points="0,-68 -50,-12 -34,48 0,28 34,48 50,-12" fill="white" opacity="0.85"/>
    <polygon points="-38,-8 -58,-50 -18,-28" fill="white" opacity="0.85"/>
    <polygon points="38,-8 58,-50 18,-28" fill="white" opacity="0.85"/>
  </g>
  <text x="128" y="200" text-anchor="middle" font-family="'Segoe UI',sans-serif" font-size="26" font-weight="600" fill="url(#holo57)" letter-spacing="5">ROMULUS</text>
  <text x="128" y="220" text-anchor="middle" font-family="'Segoe UI',sans-serif" font-size="8" fill="#6B7280" letter-spacing="3">YOUR COLLECTION, PERFECTED.</text>
</svg>