<svg xmlns="http://www.w3.org/2000/svg" viewBox="0 0 256 256" width="256" height="256">
  <defs>
    <linearGradient id="holo59" x1="0" y1="0" x2="1" y2="1">
      <stop offset="0%" stop-color="#EC4899"/>
      <stop offset="25%" stop-color="#F59E0B"/>
      <stop offset="50%" stop-color="#10B981"/>
      <stop offset="75%" stop-color="#3B82F6"/>
      <stop offset="100%" stop-color="#8B5CF6"/>
    </linearGradient>
  </defs>
  <rect width="256" height="256" rx="32" fill="#001020"/>
  <!-- Inverted prism (point down) -->
  <polygon points="60,40 196,40 128,160" fill="none" stroke="url(#holo59)" stroke-width="2.5"/>
  <!-- White beam from top -->
  <line x1="128" y1="0" x2="128" y2="50" stroke="white" stroke-width="2.5" opacity="0.35"/>
  <!-- Rainbow rays fan out downward -->
  <line x1="100" y1="145" x2="30" y2="230" stroke="#EF4444" stroke-width="2" opacity="0.6"/>
  <line x1="108" y1="148" x2="55" y2="235" stroke="#F97316" stroke-width="2" opacity="0.6"/>
  <line x1="117" y1="152" x2="80" y2="240" stroke="#FBBF24" stroke-width="2" opacity="0.6"/>
  <line x1="128" y1="160" x2="128" y2="245" stroke="#22C55E" stroke-width="2" opacity="0.6"/>
  <line x1="139" y1="152" x2="176" y2="240" stroke="#3B82F6" stroke-width="2" opacity="0.6"/>
  <line x1="148" y1="148" x2="201" y2="235" stroke="#8B5CF6" stroke-width="2" opacity="0.6"/>
  <line x1="156" y1="145" x2="226" y2="230" stroke="#A855F7" stroke-width="2" opacity="0.6"/>
  <!-- Wolf inside inverted prism -->
  <g transform="translate(128,88) scale(0.42)">
    <polygon points="0,-68 -50,-12 -34,48 0,28 34,48 50,-12" fill="white" opacity="0.85"/>
    <polygon points="-38,-8 -58,-50 -18,-28" fill="white" opacity="0.85"/>
    <polygon points="38,-8 58,-50 18,-28" fill="white" opacity="0.85"/>
  </g>
  <text x="128" y="196" text-anchor="middle" font-family="'Segoe UI',sans-serif" font-size="26" font-weight="600" fill="url(#holo59)" letter-spacing="5">ROMULUS</text>
  <text x="128" y="216" text-anchor="middle" font-family="'Segoe UI',sans-serif" font-size="8" fill="#6B7280" letter-spacing="3">YOUR COLLECTION, PERFECTED.</text>
</svg>