<svg xmlns="http://www.w3.org/2000/svg" viewBox="0 0 256 256" width="256" height="256">
  <defs>
    <linearGradient id="holo60" x1="0" y1="0" x2="1" y2="1">
      <stop offset="0%" stop-color="#06B6D4"/>
      <stop offset="25%" stop-color="#8B5CF6"/>
      <stop offset="50%" stop-color="#EC4899"/>
      <stop offset="75%" stop-color="#F59E0B"/>
      <stop offset="100%" stop-color="#10B981"/>
    </linearGradient>
    <linearGradient id="beam60" x1="0" y1="0" x2="1" y2="0">
      <stop offset="0%" stop-color="#EC4899"/>
      <stop offset="50%" stop-color="#F59E0B"/>
      <stop offset="100%" stop-color="#06B6D4"/>
    </linearGradient>
  </defs>
  <rect width="256" height="256" rx="32" fill="#111118"/>
  <!-- Hexagonal prism -->
  <polygon points="128,30 176,58 176,114 128,142 80,114 80,58" fill="none" stroke="url(#holo60)" stroke-width="2.5"/>
  <!-- Colored beam in from left -->
  <line x1="0" y1="86" x2="82" y2="86" stroke="url(#beam60)" stroke-width="3" opacity="0.4"/>
  <!-- Rainbow rays right -->
  <line x1="176" y1="65" x2="250" y2="38" stroke="#EF4444" stroke-width="2" opacity="0.6"/>
  <line x1="176" y1="74" x2="252" y2="52" stroke="#F97316" stroke-width="2" opacity="0.6"/>
  <line x1="176" y1="83" x2="254" y2="68" stroke="#FBBF24" stroke-width="2" opacity="0.6"/>
  <line x1="176" y1="92" x2="254" y2="86" stroke="#22C55E" stroke-width="2" opacity="0.6"/>
  <line x1="176" y1="101" x2="252" y2="104" stroke="#3B82F6" stroke-width="2" opacity="0.6"/>
  <line x1="176" y1="110" x2="250" y2="122" stroke="#8B5CF6" stroke-width="2" opacity="0.6"/>
  <!-- Wolf inside hex -->
  <g transform="translate(128,82) scale(0.38)">
    <polygon points="0,-68 -50,-12 -34,48 0,28 34,48 50,-12" fill="white" opacity="0.85"/>
    <polygon points="-38,-8 -58,-50 -18,-28" fill="white" opacity="0.85"/>
    <polygon points="38,-8 58,-50 18,-28" fill="white" opacity="0.85"/>
  </g>
  <text x="128" y="180" text-anchor="middle" font-family="'Segoe UI',sans-serif" font-size="28" font-weight="600" fill="url(#holo60)" letter-spacing="5">ROMULUS</text>
  <text x="128" y="202" text-anchor="middle" font-family="'Segoe UI',sans-serif" font-size="8" fill="#6B7280" letter-spacing="3">YOUR COLLECTION, PERFECTED.</text>
</svg>