<svg xmlns="http://www.w3.org/2000/svg" viewBox="0 0 256 256" width="256" height="256">
  <defs>
    <linearGradient id="holo63" x1="0" y1="0" x2="1" y2="1">
      <stop offset="0%" stop-color="#06B6D4"/>
      <stop offset="20%" stop-color="#8B5CF6"/>
      <stop offset="40%" stop-color="#EC4899"/>
      <stop offset="60%" stop-color="#F59E0B"/>
      <stop offset="80%" stop-color="#10B981"/>
      <stop offset="100%" stop-color="#06B6D4"/>
    </linearGradient>
  </defs>
  <rect width="256" height="256" rx="32" fill="#0A0014"/>
  <!-- Triple nested prisms -->
  <polygon points="128,20 48,155 208,155" fill="none" stroke="url(#holo63)" stroke-width="1" opacity="0.3"/>
  <polygon points="128,35 62,148 194,148" fill="none" stroke="url(#holo63)" stroke-width="2"/>
  <polygon points="128,55 80,138 176,138" fill="none" stroke="url(#holo63)" stroke-width="1.5" opacity="0.5"/>
  <!-- Beam -->
  <line x1="0" y1="100" x2="70" y2="100" stroke="white" stroke-width="2" opacity="0.25"/>
  <!-- Rainbow fan -->
  <line x1="185" y1="85" x2="255" y2="48" stroke="#EF4444" stroke-width="2" opacity="0.6"/>
  <line x1="188" y1="98" x2="255" y2="68" stroke="#F97316" stroke-width="2" opacity="0.6"/>
  <line x1="191" y1="111" x2="255" y2="90" stroke="#FBBF24" stroke-width="2" opacity="0.6"/>
  <line x1="193" y1="124" x2="255" y2="115" stroke="#22C55E" stroke-width="2" opacity="0.6"/>
  <line x1="194" y1="137" x2="255" y2="142" stroke="#3B82F6" stroke-width="2" opacity="0.6"/>
  <line x1="195" y1="148" x2="252" y2="168" stroke="#8B5CF6" stroke-width="2" opacity="0.6"/>
  <!-- Wolf — filling inner prism -->
  <g transform="translate(128,95) scale(0.40)">
    <polygon points="0,-68 -50,-12 -34,48 0,28 34,48 50,-12" fill="white" opacity="0.9"/>
    <polygon points="-38,-8 -58,-50 -18,-28" fill="white" opacity="0.9"/>
    <polygon points="38,-8 58,-50 18,-28" fill="white" opacity="0.9"/>
  </g>
  <text x="128" y="190" text-anchor="middle" font-family="'Segoe UI',sans-serif" font-size="28" font-weight="600" fill="url(#holo63)" letter-spacing="5">ROMULUS</text>
  <text x="128" y="212" text-anchor="middle" font-family="'Segoe UI',sans-serif" font-size="8" fill="#6B7280" letter-spacing="3">YOUR COLLECTION, PERFECTED.</text>
</svg>