<svg xmlns="http://www.w3.org/2000/svg" viewBox="0 0 256 256" width="256" height="256">
  <defs>
    <linearGradient id="holo68" x1="0" y1="0" x2="1" y2="1">
      <stop offset="0%" stop-color="#818CF8"/>
      <stop offset="33%" stop-color="#C084FC"/>
      <stop offset="66%" stop-color="#F0ABFC"/>
      <stop offset="100%" stop-color="#FDE68A"/>
    </linearGradient>
    <filter id="glow68">
      <feGaussianBlur stdDeviation="2.5" result="blur"/>
      <feMerge><feMergeNode in="blur"/><feMergeNode in="SourceGraphic"/></feMerge>
    </filter>
  </defs>
  <rect width="256" height="256" rx="32" fill="#0E0525"/>
  <!-- Deep purple/violet palette -->
  <!-- Prism — purple tones -->
  <polygon points="128,30 62,148 194,148" fill="none" stroke="url(#holo68)" stroke-width="2.5"/>
  <!-- Beam — lavender -->
  <line x1="0" y1="98" x2="76" y2="98" stroke="#E9D5FF" stroke-width="2" opacity="0.3"/>
  <!-- Purple-spectrum rays (violet to gold) -->
  <line x1="182" y1="82" x2="255" y2="48" stroke="#7C3AED" stroke-width="2" opacity="0.7"/>
  <line x1="184" y1="92" x2="255" y2="65" stroke="#8B5CF6" stroke-width="2" opacity="0.7"/>
  <line x1="186" y1="102" x2="255" y2="82" stroke="#A78BFA" stroke-width="2" opacity="0.7"/>
  <line x1="188" y1="112" x2="255" y2="100" stroke="#C084FC" stroke-width="2" opacity="0.7"/>
  <line x1="189" y1="122" x2="255" y2="118" stroke="#E879F9" stroke-width="2" opacity="0.7"/>
  <line x1="190" y1="132" x2="255" y2="136" stroke="#F0ABFC" stroke-width="2" opacity="0.7"/>
  <line x1="191" y1="142" x2="254" y2="154" stroke="#FDE68A" stroke-width="2" opacity="0.7"/>
  <!-- Wolf with purple glow -->
  <g transform="translate(128,92) scale(0.43)" filter="url(#glow68)">
    <polygon points="0,-68 -50,-12 -34,48 0,28 34,48 50,-12" fill="#E9D5FF" opacity="0.9"/>
    <polygon points="-38,-8 -58,-50 -18,-28" fill="#E9D5FF" opacity="0.9"/>
    <polygon points="38,-8 58,-50 18,-28" fill="#E9D5FF" opacity="0.9"/>
  </g>
  <text x="128" y="186" text-anchor="middle" font-family="'Segoe UI',sans-serif" font-size="28" font-weight="600" fill="url(#holo68)" letter-spacing="5">ROMULUS</text>
  <text x="128" y="208" text-anchor="middle" font-family="'Segoe UI',sans-serif" font-size="8" fill="#7C3AED" letter-spacing="3" opacity="0.6">YOUR COLLECTION, PERFECTED.</text>
</svg>