<svg xmlns="http://www.w3.org/2000/svg" viewBox="0 0 256 256" width="256" height="256">
  <defs>
    <linearGradient id="holo69" x1="0" y1="0" x2="1" y2="1">
      <stop offset="0%" stop-color="#06B6D4"/>
      <stop offset="25%" stop-color="#8B5CF6"/>
      <stop offset="50%" stop-color="#EC4899"/>
      <stop offset="75%" stop-color="#F59E0B"/>
      <stop offset="100%" stop-color="#10B981"/>
    </linearGradient>
  </defs>
  <rect width="256" height="256" rx="32" fill="#0A0E14"/>
  <!-- Pentagon prism -->
  <polygon points="128,28 66,68 82,145 174,145 190,68" fill="none" stroke="url(#holo69)" stroke-width="2.5"/>
  <!-- Beam in -->
  <line x1="0" y1="90" x2="72" y2="90" stroke="white" stroke-width="2" opacity="0.3"/>
  <!-- Rainbow rays -->
  <line x1="186" y1="70" x2="255" y2="38" stroke="#EF4444" stroke-width="2" opacity="0.65"/>
  <line x1="188" y1="82" x2="255" y2="55" stroke="#F97316" stroke-width="2" opacity="0.65"/>
  <line x1="189" y1="94" x2="255" y2="74" stroke="#FBBF24" stroke-width="2" opacity="0.65"/>
  <line x1="190" y1="106" x2="255" y2="96" stroke="#22C55E" stroke-width="2" opacity="0.65"/>
  <line x1="190" y1="118" x2="255" y2="118" stroke="#3B82F6" stroke-width="2" opacity="0.65"/>
  <line x1="189" y1="130" x2="254" y2="140" stroke="#8B5CF6" stroke-width="2" opacity="0.65"/>
  <!-- Wolf centered in pentagon -->
  <g transform="translate(128,90) scale(0.40)">
    <polygon points="0,-68 -50,-12 -34,48 0,28 34,48 50,-12" fill="white" opacity="0.88"/>
    <polygon points="-38,-8 -58,-50 -18,-28" fill="white" opacity="0.88"/>
    <polygon points="38,-8 58,-50 18,-28" fill="white" opacity="0.88"/>
  </g>
  <text x="128" y="182" text-anchor="middle" font-family="'Segoe UI',sans-serif" font-size="28" font-weight="600" fill="url(#holo69)" letter-spacing="5">ROMULUS</text>
  <text x="128" y="204" text-anchor="middle" font-family="'Segoe UI',sans-serif" font-size="8" fill="#6B7280" letter-spacing="3">YOUR COLLECTION, PERFECTED.</text>
</svg>