<svg xmlns="http://www.w3.org/2000/svg" viewBox="0 0 256 256" width="256" height="256">
  <defs>
    <linearGradient id="holo75" x1="0" y1="0" x2="1" y2="1">
      <stop offset="0%" stop-color="#EF4444"/>
      <stop offset="25%" stop-color="#F97316"/>
      <stop offset="50%" stop-color="#FBBF24"/>
      <stop offset="75%" stop-color="#EF4444"/>
      <stop offset="100%" stop-color="#F97316"/>
    </linearGradient>
  </defs>
  <rect width="256" height="256" rx="32" fill="#1A0A00"/>
  <!-- Fire/ember palette -->
  <!-- Prism -->
  <polygon points="128,30 62,148 194,148" fill="none" stroke="url(#holo75)" stroke-width="2.5"/>
  <!-- Ember beam -->
  <line x1="0" y1="98" x2="76" y2="98" stroke="#FDE68A" stroke-width="2" opacity="0.25"/>
  <!-- Fire spectrum rays (all warm: red→orange→yellow→white) -->
  <line x1="182" y1="80" x2="255" y2="42" stroke="#7F1D1D" stroke-width="2" opacity="0.7"/>
  <line x1="184" y1="90" x2="255" y2="58" stroke="#EF4444" stroke-width="2.2" opacity="0.7"/>
  <line x1="186" y1="100" x2="255" y2="76" stroke="#F97316" stroke-width="2.2" opacity="0.75"/>
  <line x1="188" y1="110" x2="255" y2="95" stroke="#FBBF24" stroke-width="2.4" opacity="0.8"/>
  <line x1="189" y1="120" x2="255" y2="114" stroke="#FDE68A" stroke-width="2.4" opacity="0.8"/>
  <line x1="190" y1="130" x2="255" y2="133" stroke="#FFFBEB" stroke-width="2" opacity="0.6"/>
  <line x1="191" y1="140" x2="254" y2="152" stroke="#FDE68A" stroke-width="1.8" opacity="0.5"/>
  <!-- Wolf — warm white/gold tint -->
  <g transform="translate(128,92) scale(0.43)">
    <polygon points="0,-68 -50,-12 -34,48 0,28 34,48 50,-12" fill="#FEF3C7" opacity="0.9"/>
    <polygon points="-38,-8 -58,-50 -18,-28" fill="#FEF3C7" opacity="0.9"/>
    <polygon points="38,-8 58,-50 18,-28" fill="#FEF3C7" opacity="0.9"/>
  </g>
  <text x="128" y="186" text-anchor="middle" font-family="'Segoe UI',sans-serif" font-size="28" font-weight="700" fill="url(#holo75)" letter-spacing="5">ROMULUS</text>
  <text x="128" y="208" text-anchor="middle" font-family="'Segoe UI',sans-serif" font-size="8" fill="#F97316" letter-spacing="3" opacity="0.5">YOUR COLLECTION, PERFECTED.</text>
</svg>